<svg xmlns="http://www.w3.org/2000/svg" width="490" height="113" viewBox="0 0 490 113">
  <g id="Group_70" data-name="Group 70" transform="translate(-133 -192.071)">
    <rect id="Rectangle_44" data-name="Rectangle 44" width="490" height="113" rx="20" transform="translate(133 192.071)" fill="none"/>
    <text id="_opensourcecode" data-name="@opensourcecode" transform="translate(423 262.461)" fill="#e8e8e8" font-size="36" font-family="Poppins-SemiBold, Poppins" font-weight="600"><tspan x="-177.624" y="0">@opensourcecode</tspan></text>
    <path id="Icon_simple-github" data-name="Icon simple-github" d="M32,.446C14.32.446,0,15.137,0,33.258A32.744,32.744,0,0,0,21.88,64.389c1.6.309,2.187-.705,2.187-1.578,0-.779-.027-2.844-.04-5.578-8.9,1.98-10.779-4.4-10.779-4.4-1.456-3.787-3.56-4.8-3.56-4.8-2.9-2.034.224-1.993.224-1.993,3.213.23,4.9,3.38,4.9,3.38,2.853,5.018,7.491,3.568,9.32,2.729a7.064,7.064,0,0,1,2.027-4.389c-7.107-.82-14.576-3.642-14.576-16.215a12.839,12.839,0,0,1,3.293-8.8,11.941,11.941,0,0,1,.28-8.684s2.68-.88,8.8,3.363a29.45,29.45,0,0,1,16,0c6.08-4.244,8.76-3.363,8.76-3.363a12.273,12.273,0,0,1,.32,8.684,12.892,12.892,0,0,1,3.28,8.8c0,12.605-7.48,15.381-14.6,16.187,1.12.984,2.16,3,2.16,6.07,0,4.391-.04,7.919-.04,8.985,0,.861.56,1.887,2.2,1.559A32.631,32.631,0,0,0,64,33.258C64,15.137,49.672.445,32,.445" transform="translate(151.86 218.199)" fill="#e8e8e8"/>
  </g>
</svg>
