<svg xmlns="http://www.w3.org/2000/svg" width="490" height="113" viewBox="0 0 490 113">
  <g id="Group_71" data-name="Group 71" transform="translate(-741 -191.385)">
    <rect id="Rectangle_45" data-name="Rectangle 45" width="490" height="113" rx="20" transform="translate(741 191.385)" fill="none"/>
    <text id="_opensourcecode" data-name="@opensourcecode" transform="translate(1027 262.461)" fill="#e8e8e8" font-size="36" font-family="Poppins-SemiBold, Poppins" font-weight="600"><tspan x="-177.624" y="0">@opensourcecode</tspan></text>
    <path id="Icon_awesome-slack-hash" data-name="Icon awesome-slack-hash" d="M63.741,36.307a5.2,5.2,0,0,0-6.571-3.272l-6.486,2.157L46.355,22.333l6.486-2.157a5.182,5.182,0,1,0-3.286-9.83L43.07,12.5,40.827,5.788A5.2,5.2,0,0,0,30.97,9.074l2.243,6.715L19.87,20.247l-2.243-6.715A5.2,5.2,0,0,0,7.77,16.818l2.243,6.715L3.542,25.677A5.193,5.193,0,0,0,.256,32.235a5.358,5.358,0,0,0,4.8,3.515c.971.143,1.714-.229,8.243-2.4l4.328,12.859-6.486,2.157a5.211,5.211,0,0,0-3.286,6.558,5.358,5.358,0,0,0,4.8,3.515c.971.143,1.714-.229,8.243-2.4l2.243,6.715a5.306,5.306,0,0,0,6.571,3.272A5.193,5.193,0,0,0,33,59.468l-2.243-6.715,13.371-4.472L46.37,55a5.306,5.306,0,0,0,6.571,3.272,5.193,5.193,0,0,0,3.286-6.558l-2.243-6.715,6.486-2.157a5.149,5.149,0,0,0,3.271-6.53Zm-36.3,6.744L23.113,30.163,36.47,25.691,40.8,38.579Z" transform="translate(761.999 213.745)" fill="#f7f7f7"/>
  </g>
</svg>
