<svg xmlns="http://www.w3.org/2000/svg" width="24.675" height="24.6" viewBox="0 0 24.675 24.6">
  <path id="Icon_awesome-map-signs" data-name="Icon awesome-map-signs" d="M23.384,3.9l-2-2a1.475,1.475,0,0,0-1.043-.432h-7.07V.738A.737.737,0,0,0,12.538,0H11.063a.737.737,0,0,0-.738.738v.738H2.581A1.107,1.107,0,0,0,1.475,2.581V6.269A1.107,1.107,0,0,0,2.581,7.375H20.345a1.476,1.476,0,0,0,1.043-.432l2-2A.738.738,0,0,0,23.384,3.9ZM10.325,22.863a.737.737,0,0,0,.738.738h1.475a.737.737,0,0,0,.738-.738V17.7h-2.95ZM21.019,10.325H13.275V8.85h-2.95v1.475H3.256a1.476,1.476,0,0,0-1.043.432l-2,2a.738.738,0,0,0,0,1.043l2,2a1.475,1.475,0,0,0,1.043.432H21.019a1.107,1.107,0,0,0,1.106-1.106V11.431A1.107,1.107,0,0,0,21.019,10.325Z" transform="translate(0.5 0.5)" fill="none" stroke="#000" stroke-width="1"/>
</svg>
