<svg xmlns="http://www.w3.org/2000/svg" width="31.337" height="30.026" viewBox="0 0 31.337 30.026">
  <path id="Icon_awesome-star" data-name="Icon awesome-star" d="M14.966,1.008l-3.7,7.5L2.993,9.712a1.813,1.813,0,0,0-1,3.092l5.986,5.833-1.416,8.24a1.811,1.811,0,0,0,2.628,1.909l7.4-3.891,7.4,3.891a1.813,1.813,0,0,0,2.628-1.909L25.2,18.638,31.191,12.8a1.813,1.813,0,0,0-1-3.092L21.914,8.506l-3.7-7.5a1.814,1.814,0,0,0-3.251,0Z" transform="translate(-0.923 0.501)" fill="none" stroke="#000" stroke-width="1"/>
</svg>
